<svg version="1.2" xmlns="http://www.w3.org/2000/svg" viewBox="0 0 3499 3500" width="36" height="36">
	<title>image-from-rawpixel-id-2887311-jpeg</title>
	<style>
		.s0 { fill: #ffcc00 } 
	</style>
	<g id="Background">
		<path id="Path 1" class="s0" d="m1677.5 2023.6c-1.7 0.3-6.6 1.2-11 2.1-4.4 0.8-11.8 2.9-16.5 4.5-4.7 1.7-11.7 4.6-15.5 6.6-3.8 1.9-10.4 5.7-14.5 8.5-4.1 2.7-12 9.5-17.6 15.1-5.5 5.6-12.3 13.5-15.1 17.6-2.8 4.1-6.7 10.9-8.8 15-2.1 4.1-5 11.1-6.6 15.5-1.5 4.4-3.6 11.8-4.6 16.5-1.3 6.2-1.8 12.7-1.8 24.5 0 9.6 0.6 18.8 1.4 23 0.7 3.8 2.9 11.7 4.8 17.5 1.9 5.8 5.4 14.3 7.9 19 2.5 4.7 6.5 11.2 8.9 14.5 2.3 3.3 7.3 9.3 11.1 13.4 3.8 4.1 10.7 10.2 15.4 13.7 4.7 3.5 12.7 8.6 17.8 11.4l9.2 5v518h99v-517c7-4.3 13.1-8 18.1-11 5.7-3.4 13-9.1 19.3-15.1 5.5-5.3 13-13.6 16.4-18.5 3.5-4.9 8.3-13 10.7-17.9 2.4-4.9 5.1-11.2 6-14 0.9-2.7 2.6-8.4 3.7-12.5 1.4-5.5 2.1-12 2.5-24.5 0.4-13.2 0.1-19.1-1.1-26.5-0.9-5.2-3.1-13.6-4.7-18.5-1.7-4.9-5.2-13.1-7.7-18-2.6-4.9-7.3-12.6-10.6-17-3.3-4.4-9.6-11.5-14-15.9-4.5-4.3-12.1-10.5-17.1-13.8-5-3.3-12.2-7.5-16-9.3-3.8-1.9-10.4-4.5-14.5-5.9-4.1-1.3-11.1-3.2-15.5-4.1-4.6-1-13.9-1.8-22-2-7.7-0.2-15.3-0.1-17 0.1z"/>
		<path id="Path 2" class="s0" d="m1699 716.1c-8 0.4-21 1.3-29 1.9-8 0.6-24.6 2.2-37 3.6-12.4 1.4-31 3.8-41.5 5.4-10.5 1.6-26.2 4.3-35 5.9-8.8 1.7-23.2 4.6-32 6.6-8.8 2-23 5.4-31.5 7.5-8.5 2.1-25.4 6.8-37.5 10.4-12.1 3.6-30.1 9.3-40 12.7-9.9 3.3-26.1 9.2-36 13-9.9 3.8-27.7 11.1-39.5 16.2-11.8 5-33.4 15.1-48 22.3-14.6 7.2-34.8 17.7-45 23.4-10.2 5.7-24.8 14.1-32.5 18.8-7.7 4.7-22.3 14-32.5 20.6-10.2 6.7-25.9 17.5-35 24-9.1 6.6-23.2 17.1-31.4 23.5-8.2 6.4-21 16.7-28.5 22.9-7.5 6.3-21.4 18.4-31 27-9.6 8.6-26.5 24.7-37.5 35.8-11.1 11-26.2 26.7-33.6 35-7.4 8.2-17.4 19.4-22.1 24.9-4.7 5.5-13.2 15.8-19 23-5.8 7.2-15.2 19.3-21 27-5.8 7.7-15.9 21.7-22.5 31-6.6 9.3-17.5 25.8-24.3 36.5-6.8 10.7-18.2 29.6-25.3 42-7.1 12.4-18.2 33.1-24.7 46-6.6 12.9-15.8 32.3-20.6 43-4.8 10.7-12 27.6-16 37.5-4 9.9-10 25.7-13.3 35-3.4 9.3-8.5 24.7-11.6 34-3 9.3-6.6 20.8-7.9 25.5-1.4 4.7-3.7 13-5.2 18.5-1.5 5.5-4.7 18.1-7.2 28-2.4 9.9-6.2 26.8-8.3 37.5-2.2 10.7-5.3 27.6-6.9 37.5-1.7 9.9-4.2 26.8-5.5 37.5-1.4 10.7-3 24.7-3.6 31-0.5 6.3-1.4 16.5-2 22.5-0.5 6-1.5 26.3-2.2 45-0.9 26.6-0.9 41.3 0 67.5 0.7 18.4 2.1 43.6 3.2 56 1.1 12.4 2.5 26.3 3.1 31 0.5 4.7 1.9 15 3 23 1 8 3.5 23.7 5.5 35 1.9 11.3 5.2 28.6 7.4 38.5 2.1 9.9 5.7 25.4 8 34.5 2.3 9.1 6.4 24.4 9.1 34 2.7 9.6 8.7 28.7 13.3 42.5 4.6 13.7 11.4 32.9 15.1 42.5 3.7 9.6 10.1 25.4 14.3 35 4.1 9.6 11.9 26.9 17.4 38.5 5.4 11.6 14.1 28.9 19.2 38.5 5.1 9.6 12.8 23.6 17.1 31 4.3 7.4 12 20.5 17.3 29 5.2 8.5 15.4 24.3 22.6 35 7.3 10.7 19.2 27.6 26.5 37.5 7.4 9.9 17.9 23.6 23.4 30.5 5.5 6.9 16.6 20.1 24.6 29.5 8 9.3 21.2 23.9 29.2 32.5 8 8.5 22.7 23.4 32.5 33 9.9 9.6 25.1 23.9 33.9 31.7 8.8 7.8 21 18.3 27 23.3 6 5 17.5 14.2 25.5 20.5 8 6.2 20.8 15.9 28.5 21.5 7.7 5.6 23.7 16.6 35.5 24.5 11.8 7.8 29.4 19 39 24.7 9.6 5.8 23.8 14 31.5 18.3 7.7 4.3 25.5 13.6 39.5 20.6 14 7 33.2 16.1 42.5 20.2 9.3 4.1 24.9 10.7 34.5 14.5 9.6 3.9 25.8 10 36 13.7 10.2 3.7 27 9.3 37.5 12.6 10.5 3.3 28 8.4 39 11.4 11 3 25 6.6 31 8 6 1.4 18.2 4.1 27 6 8.8 1.9 25.5 5 37 7 11.5 1.9 22.2 3.7 23.8 4l2.7 0.5-0.5-351.3c-39.5-14.4-81.6-29.7-119-43.2-37.4-13.6-72.3-26.5-77.5-28.7-5.2-2.2-14-6.3-19.5-9-5.5-2.8-14.5-7.8-20-11.1-5.5-3.3-14.5-9.2-20-13.1-5.5-3.9-15.2-11.4-21.5-16.7-6.3-5.3-16.6-14.9-22.7-21.3-6.2-6.4-15.2-16.4-19.9-22.4-4.7-5.9-12.3-16.3-16.8-23.2-4.6-6.9-10.8-17-13.9-22.5-3-5.5-7.2-13.6-9.2-18-2-4.4-5.9-13.6-8.6-20.5-2.7-6.9-6.5-17.7-8.3-24-1.9-6.3-4.1-14.4-5-18-0.9-3.6-2.7-13-4-21-1.4-8-3-21.5-3.7-30-0.7-9.2-0.9-22.4-0.6-32.5 0.4-9.3 1.4-22.4 2.2-29 0.9-6.6 2.7-17.6 4.1-24.5 1.4-6.9 4.1-17.7 5.9-24 1.8-6.3 12.6-36.9 23.8-68 11.3-31.1 31.4-86.4 44.7-123 13.2-36.6 24.4-66.8 24.8-67.1 0.4-0.3 17.6 5.6 38.2 13.1 20.6 7.5 59.3 21.6 86 31.3 26.7 9.6 71.5 25.9 99.5 36 28 10.2 75.8 27.5 106 38.5 30.2 10.9 57.4 20.4 60.2 21.1 2.9 0.6 7.7 1.1 10.5 1.1 2.9 0 8.1-0.7 11.5-1.5 3.5-0.8 9.1-2.9 12.5-4.6 3.8-1.9 8.9-5.8 12.9-9.8 3.6-3.7 7.7-9 9.2-12.1 1.5-3 3.4-8 4.2-11 0.8-3 1.5-9.4 1.5-14.3 0-6.7-0.6-10.3-2.5-16-1.4-3.9-4-9.4-5.8-12.1-1.7-2.7-5.7-7.2-8.7-9.9-3-2.7-7.8-6.1-10.5-7.5-2.8-1.3-14.9-6-27-10.4-12.1-4.4-39.8-14.4-61.5-22.3-21.7-7.9-62.5-22.6-90.5-32.8-28-10.2-79.1-28.7-113.5-41.2-34.4-12.4-70-25.4-79.3-28.8-9.2-3.4-16.7-6.7-16.7-7.2 0-0.5 7.6-21.9 16.9-47.5 11.7-32.1 17.4-46.4 18.3-46.2 0.7 0.2 19.3 6.9 41.3 14.9 22 8 67.7 24.5 101.5 36.8 33.8 12.2 102.7 37.2 153 55.5 86.8 31.5 91.9 33.2 100 33.7 6.1 0.4 10.3 0.1 15-1.1 3.6-0.9 9.4-3.1 12.9-4.9 3.8-1.9 8.9-5.7 12.4-9.2 4-4.1 7.2-8.6 9.8-14 2.4-4.9 4.3-10.7 5-15 0.6-3.8 0.8-9.5 0.4-12.5-0.4-3-1.3-7.8-2.1-10.5-0.8-2.8-2.9-7.6-4.7-10.9-1.8-3.2-5.9-8.4-9.2-11.6-3.3-3.1-8.4-6.9-11.3-8.4-2.8-1.4-17.7-7.1-33-12.7-15.2-5.5-53.1-19.3-84.2-30.6-31.1-11.3-72-26.1-91-33-19-6.8-67.3-24.4-107.5-39-40.2-14.5-73.2-26.6-73.5-26.9-0.3-0.2 1.8-6.6 4.7-14.1 2.8-7.6 10.5-28.6 17.1-46.8 6.6-18.2 12.4-33.1 12.9-33.3 0.4-0.2 8.9 2.6 18.8 6.2 9.9 3.5 43.7 15.7 75 27.1 31.3 11.4 77.2 28 102 37 24.7 9 75.6 27.4 113 41 37.4 13.5 70.5 25.5 73.5 26.7 3.4 1.2 9 2.2 14.5 2.5 6.5 0.4 10.8 0.1 15.2-1.1 3.5-0.9 9.1-3 12.5-4.7 3.7-1.9 8.8-5.7 12.3-9.3 3.3-3.4 7.5-8.8 9.2-12.1 1.8-3.3 3.9-8.9 4.7-12.5 0.9-3.6 1.6-9.2 1.6-12.5 0-3.3-0.7-8.7-1.5-12-0.9-3.3-2.6-8.3-4-11-1.3-2.8-4.1-7.3-6.3-10-2.1-2.8-7-7.1-10.8-9.7-5.8-3.9-13.6-7.1-47.4-19.3-22.3-8.1-60.9-22.1-85.8-31.1-24.8-9-65.6-23.8-90.5-32.8-24.8-9-70.6-25.6-101.7-36.9-31.1-11.3-58.9-21.3-61.9-22.3-2.9-1.1-5.5-2.4-5.8-2.9-0.2-0.5 1.6-5.6 4.1-11.3 2.5-5.6 6.9-14.4 9.7-19.5 2.9-5 7.8-13.5 11.1-18.7 3.3-5.2 9.7-14.5 14.3-20.5 4.5-6 12.7-16 18.2-22 5.5-6 14.4-15.1 19.9-20 5.4-5 13.1-11.6 16.9-14.6 3.8-3.1 10.8-8.3 15.5-11.6 4.7-3.3 13.9-9.3 20.5-13.2 6.6-4 17-9.6 23-12.5 6-3 14.9-7 19.7-9 4.9-2 14.1-5.4 20.5-7.5 6.5-2.2 17.4-5.3 24.3-7 6.9-1.6 16.5-3.7 21.5-4.5 5-0.9 15.3-2.3 23-3.1 7.7-0.8 21.4-1.5 30.5-1.5 9.1 0 21.5 0.5 27.5 1 6 0.6 17.7 2.1 26 3.5 8.2 1.4 21.7 4.3 30 6.6 8.6 2.3 66 22.6 135 47.6 66 23.9 126.1 46.1 133.5 49.4 7.4 3.2 18.4 8.6 24.5 12 6.1 3.3 15.9 9.3 22 13.3 6.1 4 15.1 10.4 20 14.3 4.9 3.8 14.2 11.7 20.5 17.5 6.3 5.7 15.4 14.9 20.2 20.4 4.8 5.4 11.2 13.1 14.3 16.9 3.1 3.8 9.4 12.6 14 19.5 4.6 6.9 11.3 17.9 14.9 24.5 3.6 6.6 9.1 17.7 12.1 24.7 3 7.1 7.2 17.9 9.4 24 2.1 6.2 5.2 16.5 6.9 22.8 1.7 6.3 4 16.5 5.2 22.5 1.1 6 2.7 16.8 3.5 24 0.9 7.6 1.5 21.8 1.5 34.5 0 12.9-0.6 26.9-1.5 35-0.9 7.4-2.9 20-4.5 28-1.6 8-4.7 20.3-6.8 27.5-2.2 7.2-11.5 33.7-20.7 59-9.2 25.3-23.1 63.8-31 85.5-7.9 21.7-24.5 67.6-37 102-12.5 34.4-27.3 75.3-33 91-5.7 15.7-19.6 54.2-31 85.5-11.4 31.3-27.1 74.8-35 96.5-7.9 21.7-23.6 65.2-35 96.5-11.4 31.3-26 71.6-32.5 89.5-6.5 17.9-13.1 35.4-14.5 39-1.5 3.6-5.2 11.7-8.4 18-3.1 6.3-8.2 15.8-11.3 21-3.1 5.2-9.1 14.4-13.3 20.5-4.3 6.1-11.7 15.7-16.5 21.5-4.8 5.8-14.6 16.2-21.6 23.1-7.1 6.9-17.6 16.3-23.4 20.9-5.8 4.6-15 11.3-20.5 15-5.5 3.7-15 9.6-21 13-6 3.5-15.5 8.5-21 11.1-5.5 2.5-15.2 6.7-21.5 9.2-6.3 2.5-17.6 6.3-25 8.5-7.4 2.2-19.6 5.1-27 6.6-7.4 1.4-16.7 3.2-20.5 3.8l-7 1.3v328c21.7-0.4 38.8-1.4 52-2.5 13.2-1.1 33-3.2 44-4.6 11-1.4 30.3-4.3 43-6.4 12.7-2.1 30.4-5.5 39.5-7.4 9.1-1.9 21.5-4.7 27.5-6.1 6-1.4 20-5 31-8 11-3 28.6-8.1 39-11.4 10.4-3.3 27.3-8.9 37.5-12.6 10.2-3.7 26.4-9.8 36-13.7 9.6-3.8 25.2-10.4 34.5-14.5 9.3-4.1 28.5-13.2 42.5-20.2 14-7 31.8-16.3 39.5-20.6 7.7-4.3 21.9-12.5 31.5-18.3 9.6-5.7 27.2-16.9 39-24.7 11.8-7.9 27.8-18.9 35.5-24.5 7.7-5.6 20.7-15.5 28.9-21.9 8.2-6.4 20.4-16.1 27-21.7 6.7-5.6 18.6-15.9 26.6-23 7.9-7.1 22.5-20.8 32.4-30.4 9.8-9.6 24.5-24.5 32.5-33 8-8.6 21.2-23.2 29.2-32.5 8-9.4 19.1-22.6 24.6-29.5 5.5-6.9 16.2-20.8 23.8-31 7.5-10.2 20.3-28.4 28.4-40.5 8.1-12.1 19.7-30.3 25.8-40.5 6.1-10.2 14.3-24.3 18.3-31.5 4.1-7.2 12.4-22.9 18.5-35 6.2-12.1 15.1-30.6 19.8-41 4.7-10.4 11.9-27.3 16-37.5 4.2-10.2 10-25.3 13-33.5 3-8.3 8.2-23.3 11.5-33.5 3.4-10.2 8.3-26.4 11.1-36 2.7-9.6 6.8-24.9 9.1-34 2.3-9.1 5.9-24.6 8-34.5 2.2-9.9 5.5-27.2 7.4-38.5 2-11.3 4.2-25.2 5-31 0.8-5.8 2.2-16.1 3.1-23 0.8-6.9 2.4-22.6 3.5-35 1.1-12.4 2.5-37.8 3.2-56.5 0.9-26.5 0.9-41.3 0-67-0.7-18.2-1.9-40.9-2.7-50.5-0.8-9.6-2-22-2.6-27.5-0.5-5.5-2.1-18.3-3.5-28.5-1.4-10.2-3.6-25-5-33-1.4-8-3.9-21.5-5.5-30-1.7-8.5-5-23.8-7.4-34-2.4-10.2-6.4-25.9-8.9-35-2.5-9.1-6-21.7-8-28-1.9-6.3-6-19.2-9.1-28.5-3.2-9.3-8.3-24-11.5-32.5-3.2-8.5-8.3-21.8-11.5-29.5-3.1-7.7-9.5-22.5-14.2-33-4.7-10.5-13.8-29.6-20.4-42.5-6.5-12.9-17.6-33.6-24.7-46-7.1-12.4-18.5-31.3-25.3-42-6.8-10.7-17.7-27.2-24.3-36.5-6.6-9.3-16.7-23.3-22.5-31-5.8-7.7-15.2-19.8-21-27-5.8-7.2-14.3-17.5-19-23-4.7-5.5-14.7-16.7-22.1-24.9-7.4-8.3-22.5-24-33.6-35-11-11.1-27.9-27.2-37.5-35.8-9.6-8.6-23.5-20.7-31-27-7.5-6.2-19.4-15.8-26.5-21.4-7.1-5.5-19.9-15.1-28.4-21.4-8.5-6.2-25.2-17.7-37-25.5-11.8-7.8-27.8-18-35.5-22.7-7.7-4.7-22.3-13.1-32.5-18.8-10.2-5.7-30.4-16.2-45-23.4-14.6-7.2-36.2-17.3-48-22.3-11.8-5.1-29.6-12.4-39.5-16.2-9.9-3.8-26.1-9.7-36-13-9.9-3.4-27.9-9.1-40-12.7-12.1-3.6-30.1-8.5-40-11-9.9-2.5-26.1-6.3-36-8.4-9.9-2.2-27.2-5.5-38.5-7.4-11.3-2-26.8-4.4-34.5-5.6-7.7-1.1-22.3-2.8-32.5-3.9-10.2-1.1-25-2.5-33-3.1-8-0.6-21.5-1.5-30-1.9-8.5-0.5-31.3-0.9-50.5-0.8-19.3 0-41.5 0.4-49.5 0.8z"/>
	</g>
</svg>